<svg width="462" height="163" viewBox="0 0 462 163" fill="none" xmlns="http://www.w3.org/2000/svg">
<path d="M124.192 11.768L133.072 11.816C137.712 11.816 141.792 13.496 145.312 16.856C148.832 20.184 150.592 24.296 150.592 29.192C150.592 34.056 148.864 38.232 145.408 41.72C141.984 45.208 137.824 46.952 132.928 46.952H124.144C122.192 46.952 120.976 46.552 120.496 45.752C120.112 45.08 119.92 44.056 119.92 42.68V15.992C119.92 15.224 119.936 14.664 119.968 14.312C120.032 13.96 120.192 13.544 120.448 13.064C120.896 12.2 122.144 11.768 124.192 11.768ZM133.072 38.456C135.376 38.456 137.456 37.608 139.312 35.912C141.168 34.184 142.096 32.024 142.096 29.432C142.096 26.84 141.184 24.68 139.36 22.952C137.568 21.192 135.456 20.312 133.024 20.312H128.416V38.456H133.072ZM152.517 25.928C152.517 25.192 152.533 24.648 152.565 24.296C152.629 23.912 152.773 23.48 152.997 23C153.445 22.168 154.693 21.752 156.741 21.752C158.277 21.752 159.365 22.024 160.005 22.568C160.549 23.016 160.837 23.704 160.869 24.632C160.901 24.952 160.917 25.416 160.917 26.024V42.824C160.917 43.56 160.885 44.12 160.821 44.504C160.789 44.856 160.645 45.272 160.389 45.752C159.973 46.584 158.741 47 156.693 47C154.677 47 153.445 46.568 152.997 45.704C152.773 45.224 152.629 44.808 152.565 44.456C152.533 44.104 152.517 43.544 152.517 42.776V25.928ZM160.389 17.048C160.165 17.496 159.749 17.816 159.141 18.008C158.533 18.2 157.717 18.296 156.693 18.296C155.701 18.296 154.901 18.2 154.293 18.008C153.685 17.816 153.253 17.48 152.997 17C152.773 16.52 152.629 16.104 152.565 15.752C152.533 15.368 152.517 14.808 152.517 14.072C152.517 13.336 152.533 12.792 152.565 12.44C152.629 12.056 152.773 11.64 152.997 11.192C153.445 10.328 154.693 9.896 156.741 9.896C158.757 9.896 159.973 10.328 160.389 11.192C160.645 11.672 160.789 12.104 160.821 12.488C160.885 12.84 160.917 13.384 160.917 14.12C160.917 14.856 160.885 15.416 160.821 15.8C160.789 16.152 160.645 16.568 160.389 17.048ZM177.615 21.704C180.815 21.704 183.471 22.936 185.583 25.4C187.727 27.832 188.799 30.808 188.799 34.328V42.776C188.799 43.512 188.767 44.072 188.703 44.456C188.671 44.808 188.543 45.208 188.319 45.656C187.871 46.52 186.623 46.952 184.575 46.952C182.303 46.952 180.991 46.36 180.639 45.176C180.447 44.632 180.351 43.816 180.351 42.728V34.28C180.351 32.968 179.967 31.944 179.199 31.208C178.463 30.472 177.455 30.104 176.175 30.104C174.927 30.104 173.903 30.488 173.103 31.256C172.335 32.024 171.951 33.032 171.951 34.28V42.776C171.951 43.512 171.919 44.072 171.855 44.456C171.823 44.808 171.679 45.208 171.423 45.656C171.007 46.52 169.775 46.952 167.727 46.952C165.711 46.952 164.479 46.52 164.031 45.656C163.807 45.176 163.663 44.76 163.599 44.408C163.567 44.024 163.551 43.464 163.551 42.728V25.736C163.551 25.032 163.567 24.504 163.599 24.152C163.663 23.768 163.823 23.352 164.079 22.904C164.527 22.104 165.759 21.704 167.775 21.704C169.727 21.704 170.927 22.072 171.375 22.808C171.695 23.352 171.855 24.008 171.855 24.776C171.983 24.552 172.271 24.232 172.719 23.816C173.167 23.4 173.599 23.064 174.015 22.808C175.103 22.072 176.303 21.704 177.615 21.704ZM203.797 9.848L204.901 10.088C207.877 11.048 210.021 11.752 211.333 12.2C212.677 12.648 213.349 13.432 213.349 14.552C213.349 15.16 213.173 15.8 212.821 16.472C211.957 18.168 210.997 19.016 209.941 19.016C209.653 19.016 209.141 18.904 208.405 18.68L203.797 16.664L199.333 18.584C198.885 18.808 198.341 18.92 197.701 18.92C196.485 18.92 195.493 18.104 194.725 16.472C194.341 15.64 194.149 14.968 194.149 14.456C194.149 13.432 194.757 12.712 195.973 12.296L202.645 10.088L203.797 9.848ZM215.845 31.352C215.845 33.304 215.349 34.76 214.357 35.72C213.397 36.648 212.325 37.112 211.141 37.112H199.765C199.765 38.008 200.293 38.76 201.349 39.368C202.405 39.976 203.461 40.28 204.517 40.28C206.373 40.28 207.829 40.088 208.885 39.704L209.413 39.512C210.181 39.16 210.821 38.984 211.333 38.984C212.357 38.984 213.237 39.704 213.973 41.144C214.389 42.008 214.597 42.744 214.597 43.352C214.597 46.2 211.189 47.624 204.373 47.624C202.005 47.624 199.893 47.224 198.037 46.424C196.213 45.592 194.789 44.504 193.765 43.16C191.749 40.568 190.741 37.672 190.741 34.472C190.741 30.44 192.037 27.224 194.629 24.824C197.253 22.392 200.517 21.176 204.421 21.176C208.869 21.176 212.133 22.744 214.213 25.88C215.301 27.544 215.845 29.368 215.845 31.352ZM205.717 32.744C206.933 32.744 207.541 32.232 207.541 31.208C207.541 30.472 207.253 29.88 206.677 29.432C206.133 28.984 205.333 28.76 204.277 28.76C203.253 28.76 202.229 29.192 201.205 30.056C200.181 30.888 199.669 31.784 199.669 32.744H205.717ZM225.216 12.824C225.76 13.368 226.032 14.296 226.032 15.608V16.376C226.032 17.176 226 17.768 225.936 18.152C225.712 20.968 224.88 23.384 223.44 25.4C222 27.416 220.176 28.424 217.968 28.424C217.744 28.424 217.536 28.264 217.344 27.944C217.184 27.592 217.104 27.144 217.104 26.6C217.104 26.056 217.168 25.64 217.296 25.352C217.456 25.032 217.616 24.856 217.776 24.824C217.968 24.76 218.112 24.728 218.208 24.728C218.304 24.696 218.48 24.616 218.736 24.488C218.992 24.328 219.216 24.12 219.408 23.864C219.92 23.192 220.208 22.152 220.272 20.744C219.184 20.584 218.368 20.232 217.824 19.688C217.312 19.144 217.056 17.992 217.056 16.232C217.056 14.952 217.216 14.008 217.536 13.4C217.856 12.76 218.336 12.344 218.976 12.152C219.648 11.928 220.672 11.816 222.048 11.816C223.424 11.816 224.48 12.152 225.216 12.824ZM228.159 44.744C227.551 44.36 227.247 43.752 227.247 42.92C227.247 42.088 227.855 40.824 229.071 39.128C229.423 38.584 229.983 38.312 230.751 38.312C231.551 38.312 232.623 38.712 233.967 39.512C235.311 40.28 236.527 40.664 237.615 40.664C239.567 40.664 240.543 40.28 240.543 39.512C240.543 38.904 239.471 38.456 237.327 38.168C235.311 37.88 233.311 37.128 231.327 35.912C230.399 35.336 229.631 34.44 229.023 33.224C228.415 31.976 228.111 30.504 228.111 28.808C228.111 23.752 231.583 21.224 238.527 21.224C240.799 21.224 243.135 21.768 245.535 22.856C246.655 23.368 247.215 24.008 247.215 24.776C247.215 25.544 246.863 26.488 246.159 27.608C245.455 28.728 244.735 29.288 243.999 29.288C243.615 29.288 242.895 29.048 241.839 28.568C240.815 28.088 239.695 27.848 238.479 27.848C236.591 27.848 235.647 28.2 235.647 28.904C235.647 29.864 236.735 30.488 238.911 30.776C241.023 31 243.071 31.608 245.055 32.6C245.983 33.048 246.751 33.832 247.359 34.952C247.999 36.04 248.319 37.416 248.319 39.08C248.319 40.744 247.999 42.168 247.359 43.352C246.751 44.504 245.887 45.368 244.767 45.944C242.719 46.936 240.143 47.432 237.039 47.432C233.967 47.432 231.007 46.536 228.159 44.744Z" fill="#2B62CA"/>
<path d="M129.384 69.536L147.144 69.632C156.424 69.632 164.584 72.992 171.624 79.712C178.664 86.368 182.184 94.592 182.184 104.384C182.184 114.112 178.728 122.464 171.816 129.44C164.968 136.416 156.648 139.904 146.856 139.904H129.288C125.384 139.904 122.952 139.104 121.992 137.504C121.224 136.16 120.84 134.112 120.84 131.36V77.984C120.84 76.448 120.872 75.328 120.936 74.624C121.064 73.92 121.384 73.088 121.896 72.128C122.792 70.4 125.288 69.536 129.384 69.536ZM147.144 122.912C151.752 122.912 155.912 121.216 159.624 117.824C163.336 114.368 165.192 110.048 165.192 104.864C165.192 99.68 163.368 95.36 159.72 91.904C156.136 88.384 151.912 86.624 147.048 86.624H137.832V122.912H147.144ZM186.994 114.752C186.994 107.072 189.682 100.736 195.058 95.744C200.434 90.752 206.578 88.256 213.49 88.256C220.402 88.256 226.514 90.752 231.826 95.744C237.138 100.672 239.794 106.976 239.794 114.656C239.794 119.968 238.418 124.704 235.666 128.864C232.914 132.96 229.554 136 225.586 137.984C221.682 139.904 217.618 140.864 213.394 140.864C209.17 140.864 205.074 139.84 201.106 137.792C197.138 135.68 193.778 132.608 191.026 128.576C188.338 124.48 186.994 119.872 186.994 114.752ZM207.058 121.664C209.106 123.2 211.186 123.968 213.298 123.968C215.41 123.968 217.522 123.168 219.634 121.568C221.746 119.968 222.802 117.6 222.802 114.464C222.802 111.328 221.81 108.992 219.826 107.456C217.842 105.92 215.698 105.152 213.394 105.152C211.09 105.152 208.946 105.952 206.962 107.552C204.978 109.152 203.986 111.52 203.986 114.656C203.986 117.728 205.01 120.064 207.058 121.664ZM274.124 89.408C280.524 89.408 285.836 91.872 290.06 96.8C294.348 101.664 296.492 107.616 296.492 114.656V131.552C296.492 133.024 296.428 134.144 296.3 134.912C296.236 135.616 295.98 136.416 295.532 137.312C294.636 139.04 292.14 139.904 288.044 139.904C283.5 139.904 280.876 138.72 280.172 136.352C279.788 135.264 279.596 133.632 279.596 131.456V114.56C279.596 111.936 278.828 109.888 277.292 108.416C275.82 106.944 273.804 106.208 271.244 106.208C268.748 106.208 266.7 106.976 265.1 108.512C263.564 110.048 262.796 112.064 262.796 114.56V131.552C262.796 133.024 262.732 134.144 262.604 134.912C262.54 135.616 262.252 136.416 261.74 137.312C260.908 139.04 258.444 139.904 254.348 139.904C250.316 139.904 247.852 139.04 246.956 137.312C246.508 136.352 246.22 135.52 246.092 134.816C246.028 134.048 245.996 132.928 245.996 131.456V97.472C245.996 96.064 246.028 95.008 246.092 94.304C246.22 93.536 246.54 92.704 247.052 91.808C247.948 90.208 250.412 89.408 254.444 89.408C258.348 89.408 260.748 90.144 261.644 91.616C262.284 92.704 262.604 94.016 262.604 95.552C262.86 95.104 263.436 94.464 264.332 93.632C265.228 92.8 266.092 92.128 266.924 91.616C269.1 90.144 271.5 89.408 274.124 89.408ZM333.975 114.656L346.743 125.216C348.343 126.56 349.335 127.584 349.719 128.288C350.167 128.992 350.391 129.664 350.391 130.304C350.391 131.84 349.399 133.92 347.415 136.544C345.239 139.232 343.319 140.576 341.655 140.576C340.247 140.576 338.295 139.648 335.799 137.792L334.839 137.12C333.367 135.904 331.095 133.792 328.023 130.784C324.951 127.712 322.615 125.536 321.015 124.256V131.648C321.015 133.12 320.951 134.24 320.823 135.008C320.759 135.712 320.471 136.544 319.959 137.504C319.127 139.168 316.663 140 312.567 140C308.535 140 306.071 139.136 305.175 137.408C304.727 136.448 304.439 135.616 304.311 134.912C304.247 134.144 304.215 133.024 304.215 131.552V74.048C304.215 72.576 304.247 71.488 304.311 70.784C304.439 70.016 304.727 69.152 305.175 68.192C306.071 66.464 308.567 65.6 312.663 65.6C315.735 65.6 317.911 66.144 319.191 67.232C320.279 68.128 320.855 69.536 320.919 71.456C320.983 72.032 321.015 72.928 321.015 74.144V104.576C322.167 103.616 323.895 101.984 326.199 99.68C328.567 97.376 330.327 95.744 331.479 94.784L332.631 94.016C334.871 92.288 336.791 91.424 338.391 91.424C339.991 91.424 341.815 92.736 343.863 95.36C345.975 97.92 347.031 99.936 347.031 101.408C347.031 102.88 345.847 104.608 343.479 106.592L333.975 114.656ZM401.546 108.704C401.546 112.608 400.554 115.52 398.57 117.44C396.65 119.296 394.506 120.224 392.138 120.224H369.386C369.386 122.016 370.442 123.52 372.554 124.736C374.666 125.952 376.778 126.56 378.89 126.56C382.602 126.56 385.514 126.176 387.626 125.408L388.682 125.024C390.218 124.32 391.498 123.968 392.522 123.968C394.57 123.968 396.33 125.408 397.802 128.288C398.634 130.016 399.05 131.488 399.05 132.704C399.05 138.4 392.234 141.248 378.602 141.248C373.866 141.248 369.642 140.448 365.93 138.848C362.282 137.184 359.434 135.008 357.386 132.32C353.354 127.136 351.338 121.344 351.338 114.944C351.338 106.88 353.93 100.448 359.114 95.648C364.362 90.784 370.89 88.352 378.698 88.352C387.594 88.352 394.122 91.488 398.281 97.76C400.458 101.088 401.546 104.736 401.546 108.704ZM381.29 111.488C383.722 111.488 384.938 110.464 384.938 108.416C384.938 106.944 384.362 105.76 383.21 104.864C382.122 103.968 380.522 103.52 378.41 103.52C376.362 103.52 374.314 104.384 372.266 106.112C370.218 107.776 369.194 109.568 369.194 111.488H381.29ZM451.943 89.984C455.719 91.648 457.607 93.664 457.607 96.032C457.607 97.184 457.351 98.272 456.839 99.296C456.327 100.32 456.071 100.864 456.071 100.928L430.919 157.184C430.407 158.4 429.959 159.328 429.575 159.968C429.255 160.608 428.711 161.216 427.943 161.792C427.175 162.368 426.215 162.656 425.062 162.656C423.911 162.656 422.215 162.176 419.975 161.216C416.199 159.552 414.311 157.568 414.311 155.264C414.311 153.728 417.383 146.4 423.527 133.28L404.423 101.12C403.143 99.008 402.503 97.44 402.503 96.416C402.503 94.368 404.231 92.32 407.687 90.272C409.863 88.992 411.559 88.352 412.775 88.352C413.991 88.352 414.983 88.608 415.751 89.12C416.519 89.632 417.063 90.176 417.383 90.752C417.767 91.264 419.527 94.24 422.663 99.68C425.863 105.056 428.903 110.08 431.783 114.752C432.103 113.728 433.831 109.792 436.967 102.944C440.103 96.032 441.767 92.352 441.959 91.904C442.215 91.456 442.599 90.912 443.111 90.272C443.943 89.184 445.095 88.64 446.567 88.64C448.103 88.64 449.895 89.088 451.943 89.984Z" fill="#2B62CA"/>
<mask id="mask0" mask-type="alpha" maskUnits="userSpaceOnUse" x="0" y="0" width="71" height="152">
<path fill-rule="evenodd" clip-rule="evenodd" d="M0 14.8571C0 6.65175 6.65174 0 14.8571 0C23.0624 0 29.7142 6.65174 29.7142 14.8571V62.3039H41.6957V14.6175C41.6957 6.54447 48.2402 0 56.3132 0C64.3862 0 70.9306 6.54446 70.9306 14.6175V77.8799C70.9306 83.8181 67.3896 88.9294 62.304 91.2173V135.631C62.304 144.63 55.0085 151.926 46.0091 151.926H27.7972C18.7978 151.926 11.5023 144.63 11.5023 135.631V92.117C4.91275 90.5961 0 84.6919 0 77.6403V14.8571Z" fill="#9C2259"/>
</mask>
<g mask="url(#mask0)">
<rect x="-55.1151" y="-0.479279" width="169.717" height="169.717" fill="#2B62CA"/>
<mask id="mask1" mask-type="alpha" maskUnits="userSpaceOnUse" x="-56" y="-1" width="171" height="171">
<rect x="-55.1151" y="-0.479279" width="169.717" height="169.717" fill="#2B62CA"/>
</mask>
<g mask="url(#mask1)">
<path d="M33.3876 103.859C33.0523 104.031 32.9201 104.443 33.0925 104.778C33.2648 105.113 33.6763 105.245 34.0117 105.073L33.3876 103.859ZM45.2356 89.6939C45.233 89.3169 44.9253 89.0133 44.5483 89.0158C44.1713 89.0184 43.8678 89.326 43.8703 89.7031L45.2356 89.6939ZM34.0117 105.073C35.8951 104.105 38.6909 102.196 41.0189 99.5826C43.3447 96.9717 45.2618 93.5901 45.2356 89.6939L43.8703 89.7031C43.8934 93.1335 42.203 96.2008 39.9994 98.6745C37.798 101.146 35.1425 102.957 33.3876 103.859L34.0117 105.073Z" fill="#76E731"/>
<path d="M29.0825 105.845C31.0086 105.385 32.7101 107.183 32.1454 109.081V109.081C31.5806 110.979 29.173 111.553 27.8118 110.115V110.115C26.4505 108.677 27.1565 106.305 29.0825 105.845V105.845Z" fill="#9C2259"/>
<path d="M30.8385 108.636C31.8753 106.949 34.3496 107.017 35.2922 108.758V108.758C36.2349 110.499 34.9389 112.608 32.9595 112.554V112.554C30.9801 112.5 29.8018 110.323 30.8385 108.636V108.636Z" fill="#C93276"/>
<path d="M37.3481 104.156C35.4221 104.616 33.7205 102.818 34.2853 100.92V100.92C34.8501 99.0224 37.2577 98.4476 38.6189 99.8857V99.8857C39.9801 101.324 39.2742 103.696 37.3481 104.156V104.156Z" fill="#9C2259"/>
<path d="M35.4887 101.597C34.452 103.284 31.9777 103.216 31.035 101.475V101.475C30.0924 99.7334 31.3883 97.6246 33.3677 97.6789V97.6789C35.3472 97.7332 36.5255 99.91 35.4887 101.597V101.597Z" fill="#C93276"/>
<path d="M32.2059 101.176C32.6658 103.102 30.8682 104.804 28.9702 104.239V104.239C27.0723 103.674 26.4975 101.267 27.9356 99.9054V99.9054C29.3737 98.5442 31.7461 99.2502 32.2059 101.176V101.176Z" fill="#9C2259"/>
<path d="M29.7457 103.126C31.4327 104.163 31.3648 106.637 29.6234 107.58V107.58C27.882 108.523 25.7732 107.227 25.8275 105.247V105.247C25.8819 103.268 28.0586 102.089 29.7457 103.126V103.126Z" fill="#C93276"/>
<path d="M41.9825 91.9368C43.6696 92.9736 43.6017 95.4479 41.8603 96.3905V96.3905C40.1189 97.3332 38.01 96.0372 38.0644 94.0578V94.0578C38.1187 92.0784 40.2954 90.9001 41.9825 91.9368V91.9368Z" fill="#76E731"/>
<path d="M34.0513 109.446C33.5914 107.52 35.389 105.818 37.287 106.383V106.383C39.1849 106.948 39.7597 109.355 38.3216 110.717V110.717C36.8835 112.078 34.5111 111.372 34.0513 109.446V109.446Z" fill="#9C2259"/>
<path d="M36.8982 107.669C35.2112 106.632 35.2791 104.158 37.0205 103.215V103.215C38.7619 102.273 40.8707 103.568 40.8164 105.548V105.548C40.7621 107.527 38.5853 108.706 36.8982 107.669V107.669Z" fill="#C93276"/>
<circle cx="33.0504" cy="105.309" r="3.48507" transform="rotate(-133.428 33.0504 105.309)" fill="#ED6D4A"/>
<path d="M76.7265 1.51541C77.0569 1.33395 77.1777 0.91894 76.9963 0.588463C76.8148 0.257986 76.3998 0.137186 76.0693 0.318648L76.7265 1.51541ZM65.2716 16.0001C65.2845 16.3769 65.6004 16.6719 65.9772 16.659C66.354 16.6461 66.649 16.3302 66.6361 15.9534L65.2716 16.0001ZM76.0693 0.318648C74.2131 1.33787 71.4707 3.32313 69.2154 5.99934C66.9621 8.6731 65.1385 12.106 65.2716 16.0001L66.6361 15.9534C66.5189 12.5249 68.1245 9.41243 70.2594 6.87917C72.3922 4.34837 74.997 2.46504 76.7265 1.51541L76.0693 0.318648Z" fill="#76E731"/>
<path d="M72.7594 1.32698C74.6721 0.814479 76.4223 2.56472 75.9098 4.47742V4.47742C75.3973 6.39011 73.0065 7.03075 71.6063 5.63055V5.63055C70.2061 4.23036 70.8467 1.83949 72.7594 1.32698V1.32698Z" fill="#9C2259"/>
<path d="M68.462 13.6687C66.7471 12.6786 66.7471 10.2034 68.462 9.21328V9.21328C70.1769 8.22319 72.3205 9.4608 72.3205 11.441V11.441C72.3205 13.4211 70.1769 14.6587 68.462 13.6687V13.6687Z" fill="#76E731"/>
<path d="M75.9096 -4.05154C76.4221 -2.13884 74.6719 -0.388601 72.7592 -0.901107V-0.901107C70.8465 -1.41361 70.2059 -3.80448 71.606 -5.20468V-5.20468C73.0062 -6.60487 75.3971 -5.96424 75.9096 -4.05154V-4.05154Z" fill="#9C2259"/>
<path d="M73.1127 -2.19692C74.8276 -1.20684 74.8276 1.26838 73.1127 2.25846V2.25846C71.3978 3.24855 69.2542 2.01094 69.2542 0.03077V0.03077C69.2542 -1.9494 71.3978 -3.18701 73.1127 -2.19692V-2.19692Z" fill="#C93276"/>
<path d="M1.64142 134.857C1.82288 135.188 2.23789 135.309 2.56837 135.127C2.89884 134.946 3.01964 134.531 2.83818 134.2L1.64142 134.857ZM-12.8433 123.403C-13.2201 123.416 -13.5151 123.731 -13.5022 124.108C-13.4893 124.485 -13.1734 124.78 -12.7966 124.767L-12.8433 123.403ZM2.83818 134.2C1.81896 132.344 -0.1663 129.602 -2.84251 127.346C-5.51627 125.093 -8.94921 123.27 -12.8433 123.403L-12.7966 124.767C-9.3681 124.65 -6.2556 126.256 -3.72234 128.39C-1.19154 130.523 0.691794 133.128 1.64142 134.857L2.83818 134.2Z" fill="#76E731"/>
<path d="M3.74492 139.106C3.23242 137.194 4.98266 135.443 6.89535 135.956V135.956C8.80805 136.468 9.44868 138.859 8.04849 140.259V140.259C6.6483 141.66 4.25743 141.019 3.74492 139.106V139.106Z" fill="#9C2259"/>
<path d="M6.48653 137.275C4.77165 136.285 4.77165 133.809 6.48653 132.819V132.819C8.2014 131.829 10.345 133.067 10.345 135.047V135.047C10.345 137.027 8.2014 138.265 6.48653 137.275V137.275Z" fill="#C93276"/>
<path d="M1.82978 130.89C2.34229 132.803 0.592051 134.553 -1.32065 134.041V134.041C-3.23334 133.528 -3.87398 131.137 -2.47378 129.737V129.737C-1.07359 128.337 1.31728 128.978 1.82978 130.89V130.89Z" fill="#9C2259"/>
<path d="M-0.677079 132.819C1.0378 133.809 1.0378 136.285 -0.677079 137.275V137.275C-2.39196 138.265 -4.53555 137.027 -4.53555 135.047V135.047C-4.53555 133.067 -2.39196 131.829 -0.677079 132.819V132.819Z" fill="#C93276"/>
<path d="M-1.00768 136.112C0.905014 135.6 2.65525 137.35 2.14275 139.263V139.263C1.63024 141.175 -0.760629 141.816 -2.16082 140.416V140.416C-3.56101 139.016 -2.92038 136.625 -1.00768 136.112V136.112Z" fill="#9C2259"/>
<path d="M1.00886 138.518C1.99894 136.803 4.47416 136.803 5.46424 138.518V138.518C6.45433 140.233 5.21672 142.377 3.23655 142.377V142.377C1.25638 142.377 0.0187746 140.233 1.00886 138.518V138.518Z" fill="#C93276"/>
<path d="M7.20837 134.041C5.29567 134.553 3.54543 132.803 4.05794 130.89V130.89C4.57044 128.978 6.96131 128.337 8.36151 129.737V129.737C9.7617 131.137 9.12107 133.528 7.20837 134.041V134.041Z" fill="#9C2259"/>
<path d="M5.35369 131.244C4.3636 132.959 1.88839 132.959 0.898308 131.244V131.244C-0.0917768 129.529 1.14583 127.385 3.126 127.385V127.385C5.10617 127.385 6.34377 129.529 5.35369 131.244V131.244Z" fill="#C93276"/>
<circle cx="3.10029" cy="135.155" r="3.48507" transform="rotate(135 3.10029 135.155)" fill="#ED6D4A"/>
<path d="M-24.9103 46.9992C-25.6351 47.3851 -25.9098 48.2854 -25.5239 49.0102C-25.138 49.735 -24.2376 50.0097 -23.5128 49.6238L-24.9103 46.9992ZM0.440948 15.7773C0.423462 14.9564 -0.256195 14.3051 -1.07711 14.3225C-1.89802 14.34 -2.54933 15.0197 -2.53184 15.8406L0.440948 15.7773ZM-23.5128 49.6238C-19.442 47.4563 -13.4143 43.2099 -8.42778 37.4452C-3.44583 31.6858 0.621666 24.261 0.440948 15.7773L-2.53184 15.8406C-2.37273 23.3101 -5.95648 30.0431 -10.6766 35.4999C-15.3922 40.9514 -21.1175 44.9797 -24.9103 46.9992L-23.5128 49.6238Z" fill="#76E731"/>
<path d="M4.00612 92.832C-0.294639 92.5133 -2.63763 87.6585 -0.211259 84.0932V84.0932C2.21511 80.528 7.59106 80.9264 9.46545 84.8103V84.8103C11.3398 88.6942 8.30688 93.1507 4.00612 92.832V92.832Z" fill="#9C2259"/>
<path d="M2.20698 85.8801C-1.05946 88.6958 -6.14913 86.9197 -6.95443 82.683V82.683C-7.75972 78.4463 -3.67667 74.9266 0.395066 76.3475V76.3475C4.4668 77.7685 5.47342 83.0643 2.20698 85.8801V85.8801Z" fill="#C93276"/>
<path d="M-12.0949 97.4135C-8.82848 94.5977 -3.73881 96.3739 -2.93352 100.611V100.611C-2.12823 104.847 -6.21128 108.367 -10.283 106.946V106.946C-14.3547 105.525 -15.3614 100.229 -12.0949 97.4135V97.4135Z" fill="#C93276"/>
<path d="M-5.56067 100.456C-5.24199 96.1554 -0.387096 93.8124 3.17813 96.2387V96.2387C6.74336 98.6651 6.345 104.041 2.46109 105.915V105.915C-1.42282 107.79 -5.87935 104.757 -5.56067 100.456V100.456Z" fill="#9C2259"/>
<path d="M0.833444 98.0359C-1.98231 94.7695 -0.206131 89.6798 4.03057 88.8745V88.8745C8.26727 88.0692 11.787 92.1523 10.366 96.224V96.224C8.94507 100.296 3.6492 101.302 0.833444 98.0359V98.0359Z" fill="#C93276"/>
<circle cx="-4.58165" cy="91.3219" r="7.59004" transform="rotate(64.2379 -4.58165 91.3219)" fill="#ED6D4A"/>
<path d="M79.3678 94.4531C79.5632 95.2506 80.3682 95.7387 81.1657 95.5432C81.9632 95.3478 82.4512 94.5428 82.2558 93.7453L79.3678 94.4531ZM55.3538 62.1914C54.5538 62.0061 53.7552 62.5044 53.5699 63.3043C53.3846 64.1042 53.8828 64.9029 54.6827 65.0882L55.3538 62.1914ZM82.2558 93.7453C81.158 89.266 78.5275 82.3779 74.1689 76.1249C69.8144 69.8776 63.6205 64.1063 55.3538 62.1914L54.6827 65.0882C61.9612 66.7742 67.6038 71.9062 71.7296 77.8252C75.8513 83.7385 78.3449 90.2797 79.3678 94.4531L82.2558 93.7453Z" fill="#76E731"/>
<path d="M82.0001 86.214C82.0001 90.5265 77.3317 93.2219 73.5969 91.0656V91.0656C69.8621 88.9093 69.8621 83.5186 73.5969 81.3623V81.3623C77.3317 79.2061 82.0001 81.9014 82.0001 86.214V86.214Z" fill="#9C2259"/>
<path d="M75.6393 88.8584C78.6887 91.9079 77.2935 97.1149 73.1279 98.231V98.231C68.9623 99.3472 65.1505 95.5354 66.2667 91.3698V91.3698C67.3828 87.2042 72.5898 85.809 75.6393 88.8584V88.8584Z" fill="#C93276"/>
<path d="M73.0878 95.5998C77.4003 95.5998 80.0957 100.268 77.9394 104.003V104.003C75.7831 107.738 70.3924 107.738 68.2361 104.003V104.003C66.0799 100.268 68.7752 95.5998 73.0878 95.5998V95.5998Z" fill="#9C2259"/>
<path d="M58.4601 70.2172C61.5095 67.1678 66.7166 68.563 67.8327 72.7286V72.7286C68.9489 76.8942 65.1371 80.706 60.9715 79.5898V79.5898C56.8059 78.4736 55.4107 73.2666 58.4601 70.2172V70.2172Z" fill="#76E731"/>
<path d="M32.144 153.988C31.4243 154.383 31.1612 155.287 31.5564 156.007C31.9516 156.726 32.8554 156.989 33.5752 156.594L32.144 153.988ZM57.0912 122.442C57.0631 121.622 56.3751 120.979 55.5545 121.007C54.7339 121.035 54.0914 121.723 54.1194 122.544L57.0912 122.442ZM33.5752 156.594C37.6177 154.375 43.5903 150.051 48.5022 144.222C53.4095 138.399 57.3811 130.923 57.0912 122.442L54.1194 122.544C54.3747 130.011 50.8779 136.789 46.2284 142.306C41.5834 147.818 35.9105 151.92 32.144 153.988L33.5752 156.594Z" fill="#76E731"/>
<path d="M40.7838 154.398C36.6182 155.514 32.8064 151.703 33.9226 147.537V147.537C35.0388 143.371 40.2458 141.976 43.2952 145.026V145.026C46.3446 148.075 44.9494 153.282 40.7838 154.398V154.398Z" fill="#9C2259"/>
<path d="M36.583 148.938C34.4267 152.673 29.036 152.673 26.8797 148.938V148.938C24.7234 145.204 27.4188 140.535 31.7313 140.535V140.535C36.0439 140.535 38.7392 145.204 36.583 148.938V148.938Z" fill="#C93276"/>
<path d="M29.411 148.219C30.5272 152.384 26.7154 156.196 22.5498 155.08V155.08C18.3842 153.964 16.989 148.757 20.0384 145.707V145.707C23.0879 142.658 28.2949 144.053 29.411 148.219V148.219Z" fill="#9C2259"/>
<path d="M24.1716 152.61C27.9064 154.767 27.9064 160.157 24.1716 162.314V162.314C20.4368 164.47 15.7683 161.775 15.7683 157.462V157.462C15.7683 153.15 20.4368 150.454 24.1716 152.61V152.61Z" fill="#C93276"/>
<path d="M50.1429 127.52C53.8777 129.676 53.8777 135.067 50.1429 137.223V137.223C46.4081 139.379 41.7396 136.684 41.7396 132.371V132.371C41.7396 128.059 46.4081 125.363 50.1429 127.52V127.52Z" fill="#76E731"/>
<path d="M40.0142 162.073C36.2794 159.916 36.2794 154.526 40.0142 152.369V152.369C43.749 150.213 48.4175 152.909 48.4175 157.221V157.221C48.4175 161.534 43.749 164.229 40.0142 162.073V162.073Z" fill="#C93276"/>
<circle cx="31.4965" cy="157.165" r="7.59004" transform="rotate(-135 31.4965 157.165)" fill="#ED6D4A"/>
<path d="M40.7578 26.7934C40.3292 26.093 39.414 25.8727 38.7137 26.3012C38.0133 26.7298 37.7929 27.645 38.2215 28.3454L40.7578 26.7934ZM73.4404 50.2313C74.2588 50.1648 74.8683 49.4473 74.8018 48.629C74.7352 47.8106 74.0178 47.2011 73.1994 47.2676L73.4404 50.2313ZM38.2215 28.3454C40.6287 32.2792 45.228 38.0421 51.2808 42.6748C57.3279 47.3033 64.9827 50.9193 73.4404 50.2313L73.1994 47.2676C65.7528 47.8734 58.8174 44.6988 53.088 40.3136C47.3642 35.9326 43.0006 30.4586 40.7578 26.7934L38.2215 28.3454Z" fill="#76E731"/>
<path d="M35.7472 17.7653C37.0578 21.8739 33.4292 25.8605 29.2158 24.9413V24.9413C25.0023 24.022 23.3641 18.8862 26.2669 15.6969V15.6969C29.1698 12.5076 34.4366 13.6567 35.7472 17.7653V17.7653Z" fill="#9C2259"/>
<path d="M29.9701 22.0306C33.802 24.0091 34.0552 29.3938 30.4258 31.7231V31.7231C26.7965 34.0525 22.0065 31.5794 21.804 27.2716V27.2716C21.6014 22.9638 26.1381 20.0521 29.9701 22.0306V22.0306Z" fill="#C93276"/>
<path d="M40.7538 35.4429C39.4432 31.3343 43.0718 27.3477 47.2852 28.267V28.267C51.4986 29.1863 53.1369 34.322 50.234 37.5113V37.5113C47.3312 40.7006 42.0644 39.5515 40.7538 35.4429V35.4429Z" fill="#9C2259"/>
<path d="M46.0104 30.9903C42.1785 29.0118 41.9253 23.6271 45.5546 21.2978V21.2978C49.184 18.9685 53.9739 21.4416 54.1765 25.7494V25.7494C54.3791 30.0571 49.8423 32.9688 46.0104 30.9903V30.9903Z" fill="#C93276"/>
<path d="M46.3925 23.7924C42.2839 25.1029 38.2973 21.4744 39.2166 17.261V17.261C40.1358 13.0475 45.2716 11.4093 48.4609 14.3121V14.3121C51.6502 17.215 50.5011 22.4818 46.3925 23.7924V23.7924Z" fill="#9C2259"/>
<path d="M41.7594 18.7649C39.7809 22.5969 34.3961 22.8501 32.0668 19.2207V19.2207C29.7375 15.5913 32.2106 10.8014 36.5184 10.5988V10.5988C40.8262 10.3963 43.7378 14.933 41.7594 18.7649V18.7649Z" fill="#C93276"/>
<path d="M68.0422 43.529C66.0637 47.3609 60.679 47.6141 58.3497 43.9847V43.9847C56.0204 40.3554 58.4934 35.5654 62.8012 35.3629V35.3629C67.109 35.1603 70.0207 39.697 68.0422 43.529V43.529Z" fill="#76E731"/>
<path d="M28.7309 29.1396C32.8395 27.829 36.8261 31.4575 35.9069 35.6709V35.6709C34.9876 39.8844 29.8518 41.5226 26.6625 38.6198V38.6198C23.4733 35.7169 24.6224 30.4502 28.7309 29.1396V29.1396Z" fill="#9C2259"/>
<path d="M33.0517 35.0345C35.0302 31.2026 40.4149 30.9494 42.7442 34.5788V34.5788C45.0735 38.2082 42.6004 42.9981 38.2926 43.2006V43.2006C33.9848 43.4032 31.0732 38.8665 33.0517 35.0345V35.0345Z" fill="#C93276"/>
<circle cx="37.5536" cy="26.2957" r="7.59004" transform="rotate(-47.6921 37.5536 26.2957)" fill="#ED6D4A"/>
<path d="M21.7321 63.7146C21.8083 64.0255 22.1221 64.2158 22.433 64.1396C22.7439 64.0634 22.9341 63.7496 22.8579 63.4387L21.7321 63.7146ZM12.3704 51.1376C12.0586 51.0654 11.7472 51.2596 11.675 51.5715C11.6027 51.8833 11.797 52.1947 12.1088 52.2669L12.3704 51.1376ZM22.8579 63.4387C22.43 61.6924 21.4045 59.0072 19.7053 56.5695C18.0078 54.134 15.5931 51.8841 12.3704 51.1376L12.1088 52.2669C14.9463 52.9242 17.146 54.9249 18.7544 57.2323C20.3612 59.5376 21.3333 62.0876 21.7321 63.7146L22.8579 63.4387Z" fill="#76E731"/>
<path d="M22.5236 67.6612C22.5236 65.98 24.3435 64.9293 25.7995 65.7699V65.7699C27.2555 66.6105 27.2555 68.712 25.7995 69.5526V69.5526C24.3435 70.3932 22.5236 69.3425 22.5236 67.6612V67.6612Z" fill="#9C2259"/>
<path d="M25.1744 66.7616C23.9856 65.5728 24.5295 63.5429 26.1535 63.1077V63.1077C27.7774 62.6726 29.2634 64.1586 28.8283 65.7825V65.7825C28.3931 67.4064 26.3632 67.9504 25.1744 66.7616V66.7616Z" fill="#C93276"/>
<path d="M22.7583 60.5026C22.7583 62.1838 20.9383 63.2345 19.4824 62.3939V62.3939C18.0264 61.5533 18.0264 59.4518 19.4824 58.6112V58.6112C20.9383 57.7706 22.7583 58.8214 22.7583 60.5026V60.5026Z" fill="#9C2259"/>
<path d="M20.2783 61.5335C21.4671 62.7223 20.9232 64.7523 19.2993 65.1874V65.1874C17.6754 65.6225 16.1894 64.1365 16.6245 62.5126V62.5126C17.0596 60.8887 19.0895 60.3448 20.2783 61.5335V61.5335Z" fill="#C93276"/>
<path d="M19.2838 64.1616C20.965 64.1616 22.0158 65.9816 21.1752 67.4375V67.4375C20.3346 68.8935 18.233 68.8935 17.3924 67.4375V67.4375C16.5518 65.9816 17.6026 64.1616 19.2838 64.1616V64.1616Z" fill="#9C2259"/>
<path d="M20.4089 66.5777C21.5977 65.3889 23.6276 65.9328 24.0628 67.5567V67.5567C24.4979 69.1807 23.0119 70.6667 21.388 70.2315V70.2315C19.764 69.7964 19.2201 67.7665 20.4089 66.5777V66.5777Z" fill="#C93276"/>
<path d="M13.5813 54.2664C14.7701 53.0776 16.8 53.6216 17.2351 55.2455V55.2455C17.6702 56.8694 16.1842 58.3554 14.5603 57.9203V57.9203C12.9364 57.4851 12.3925 55.4552 13.5813 54.2664V54.2664Z" fill="#76E731"/>
<path d="M26.4768 64.2681C24.7956 64.2681 23.7449 62.4481 24.5855 60.9921V60.9921C25.4261 59.5361 27.5276 59.5361 28.3682 60.9921V60.9921C29.2088 62.4481 28.158 64.2681 26.4768 64.2681V64.2681Z" fill="#9C2259"/>
<path d="M25.5706 61.5668C24.3818 62.7556 22.3519 62.2117 21.9167 60.5878V60.5878C21.4816 58.9638 22.9676 57.4778 24.5915 57.913V57.913C26.2155 58.3481 26.7594 60.378 25.5706 61.5668V61.5668Z" fill="#C93276"/>
<circle cx="22.8632" cy="64.2791" r="2.95891" transform="rotate(150 22.8632 64.2791)" fill="#ED6D4A"/>
<path d="M8.54178 0.0158186C8.53492 0.335843 8.78878 0.600841 9.10881 0.607708C9.42883 0.614575 9.69383 0.36071 9.7007 0.0406855L8.54178 0.0158186ZM2.75426 -14.5556C2.47174 -14.7061 2.12072 -14.599 1.97024 -14.3165C1.81976 -14.034 1.92679 -13.683 2.20931 -13.5325L2.75426 -14.5556ZM9.7007 0.0406855C9.73927 -1.75681 9.44373 -4.61599 8.4334 -7.41038C7.424 -10.2022 5.67398 -13.0004 2.75426 -14.5556L2.20931 -13.5325C4.77997 -12.1632 6.38693 -9.66138 7.34328 -7.01625C8.29872 -4.37367 8.57772 -1.65893 8.54178 0.0158186L9.7007 0.0406855Z" fill="#76E731"/>
<path d="M8.28484 4.0328C8.71997 2.40887 10.7499 1.86496 11.9387 3.05375V3.05375C13.1275 4.24255 12.5836 6.27246 10.9596 6.70759V6.70759C9.33571 7.14272 7.84971 5.65672 8.28484 4.0328V4.0328Z" fill="#9C2259"/>
<path d="M11.0784 3.84981C10.2378 2.39384 11.2885 0.573871 12.9697 0.573871V0.573871C14.651 0.573871 15.7017 2.39384 14.8611 3.84981V3.84981C14.0205 5.30578 11.919 5.30578 11.0784 3.84981V3.84981Z" fill="#C93276"/>
<path d="M7.70239 -2.46715C8.54299 -1.01118 7.49223 0.80879 5.81102 0.808789V0.808789C4.12981 0.808789 3.07905 -1.01118 3.91966 -2.46715V-2.46715C4.76026 -3.92312 6.86178 -3.92312 7.70239 -2.46715V-2.46715Z" fill="#C93276"/>
<path d="M6.06126 -0.186134C7.68519 0.248995 8.2291 2.2789 7.0403 3.4677V3.4677C5.85151 4.6565 3.8216 4.11259 3.38647 2.48866V2.48866C2.95134 0.864732 4.43733 -0.621264 6.06126 -0.186134V-0.186134Z" fill="#9C2259"/>
<path d="M6.52266 2.43888C7.97863 1.59827 9.7986 2.64903 9.7986 4.33024V4.33024C9.7986 6.01146 7.97863 7.06221 6.52266 6.22161V6.22161C5.06669 5.381 5.06668 3.27949 6.52266 2.43888V2.43888Z" fill="#C93276"/>
<path d="M12.9818 1.77842C11.3579 1.34329 10.814 -0.686617 12.0028 -1.87541V-1.87541C13.1916 -3.06421 15.2215 -2.5203 15.6566 -0.896372V-0.896372C16.0918 0.727555 14.6058 2.21355 12.9818 1.77842V1.77842Z" fill="#9C2259"/>
<path d="M12.8053 -1.06544C11.3494 -0.224829 9.52941 -1.27559 9.52941 -2.9568V-2.9568C9.52941 -4.63801 11.3494 -5.68877 12.8053 -4.84816V-4.84816C14.2613 -4.00756 14.2613 -1.90604 12.8053 -1.06544V-1.06544Z" fill="#C93276"/>
<circle cx="9.48827" cy="0.853625" r="2.95891" transform="rotate(165 9.48827 0.853625)" fill="#ED6D4A"/>
</g>
</g>
<rect x="49.8431" y="34.0275" width="12.4608" height="32.5897" rx="6.23039" fill="#422821"/>
<rect x="8.62671" y="34.0275" width="12.4608" height="32.5897" rx="6.23039" fill="#422821"/>
<path d="M5.27185 69.9721C5.27185 59.1199 14.0693 50.3224 24.9215 50.3224H48.8846C59.7368 50.3224 68.5343 59.1199 68.5343 69.9721V98.7277C68.5343 109.58 59.7368 118.377 48.8846 118.377H24.9215C14.0693 118.377 5.27185 109.58 5.27185 98.7277V69.9721Z" fill="#5EBAEA"/>
<rect x="11.3378" y="74.5052" width="9.22531" height="20.084" rx="2.87556" fill="#171617" fill-opacity="0.8"/>
<mask id="mask2" mask-type="alpha" maskUnits="userSpaceOnUse" x="11" y="74" width="10" height="21">
<rect x="11.3378" y="74.5052" width="9.22531" height="20.084" rx="2.87556" fill="#550014"/>
</mask>
<g mask="url(#mask2)">
<rect x="16.3053" y="73.4482" width="4.25784" height="10.5705" rx="1.43778" fill="white"/>
</g>
<rect x="53.4492" y="74.5052" width="9.22531" height="20.084" rx="2.87556" fill="#171617" fill-opacity="0.8"/>
<mask id="mask3" mask-type="alpha" maskUnits="userSpaceOnUse" x="53" y="74" width="10" height="21">
<rect x="53.4492" y="74.5052" width="9.22531" height="20.084" rx="2.87556" fill="#550014"/>
</mask>
<g mask="url(#mask3)">
<rect x="58.4167" y="73.4482" width="4.25784" height="10.5705" rx="1.43778" fill="white"/>
</g>
<circle cx="23.9713" cy="136.053" r="5.5069" fill="#422821"/>
<circle cx="50.2099" cy="136.053" r="5.5069" fill="#422821"/>
</svg>
